<svg xmlns="http://www.w3.org/2000/svg" width="255" height="81.273" viewBox="0 0 255 81.273">
  <g id="logo" transform="translate(-318.735 -1898.745)">
    <circle id="Ellipse_1" data-name="Ellipse 1" cx="36.349" cy="36.349" r="36.349" transform="translate(501.038 1898.745)" fill="#ed5f5f"/>
    <g id="Groupe_20" data-name="Groupe 20" transform="translate(318.735 1916.94)">
      <path id="Tracé_1" data-name="Tracé 1" d="M354.417,2117.691c-.058,0-.116,0-.173-.006a52.044,52.044,0,0,1-15.371-2.978,26.037,26.037,0,0,1-10.949-7.748.96.96,0,0,0-.391.332,2.506,2.506,0,0,1-2.2,1.3,2.537,2.537,0,0,1-.459-.042,2.5,2.5,0,0,1-2.035-2.17,10.047,10.047,0,0,1-.063-1.091,2.512,2.512,0,0,1-4.043-2.009,18.526,18.526,0,0,1,.87-5.44,8.211,8.211,0,0,0,.422-4.232,33.506,33.506,0,0,1,1.2-17.483,14.629,14.629,0,0,1-1.949-4.73,23.846,23.846,0,0,1-.534-6,33.1,33.1,0,0,1,.869-6.657,2.519,2.519,0,0,1,1.51-1.71,19.621,19.621,0,0,1,5.618-1.071c.529-.033,1.072-.05,1.616-.05a30.382,30.382,0,0,1,10.855,2.069,41.326,41.326,0,0,1,12.074-2.45l.093,0h11.771l.091,0a41.323,41.323,0,0,1,12.076,2.45,30.378,30.378,0,0,1,10.854-2.07c.544,0,1.089.017,1.617.05a19.635,19.635,0,0,1,5.618,1.071,2.519,2.519,0,0,1,1.511,1.711,33.181,33.181,0,0,1,.868,6.656,23.859,23.859,0,0,1-.534,6,14.627,14.627,0,0,1-1.949,4.73,33.5,33.5,0,0,1,1.2,17.483,8.211,8.211,0,0,0,.421,4.232,18.563,18.563,0,0,1,.87,5.44,2.511,2.511,0,0,1-2.511,2.53h0a2.5,2.5,0,0,1-1.532-.521,10.019,10.019,0,0,1-.063,1.091,2.531,2.531,0,0,1-2.054,2.181,2.565,2.565,0,0,1-.44.038,2.491,2.491,0,0,1-2.188-1.284,1.2,1.2,0,0,0-.264-.271.915.915,0,0,0-.135-.083,26.037,26.037,0,0,1-10.951,7.75,52.045,52.045,0,0,1-15.371,2.978c-.057,0-.115.006-.173.006Z" transform="translate(-318.735 -2055.517)" fill="#fff"/>
      <g id="Groupe_19" data-name="Groupe 19" transform="translate(1.627 1.627)">
        <g id="Groupe_1" data-name="Groupe 1" transform="translate(0.884 0.884)">
          <path id="Tracé_2" data-name="Tracé 2" d="M373.544,2134.308c-11-.759-19.6-3.161-25.288-10.748a3.518,3.518,0,0,0-3.793,1.644s-.379-3.161,1.138-4.3c-2.655-1.011-5.226,1.518-5.226,1.518a16.446,16.446,0,0,1,.716-4.593,10.7,10.7,0,0,0,.538-5.531,31,31,0,0,1,1.57-17.44c-4.8-5.563-2.023-16.374-2.023-16.374s7.207-2.845,17.2,1.327a37.718,37.718,0,0,1,12.138-2.655h11.771a37.717,37.717,0,0,1,12.138,2.655c9.989-4.173,17.2-1.327,17.2-1.327s2.782,10.811-2.023,16.374a31,31,0,0,1,1.57,17.44,10.7,10.7,0,0,0,.538,5.531,16.447,16.447,0,0,1,.716,4.593s-2.571-2.529-5.227-1.518c1.517,1.138,1.138,4.3,1.138,4.3a3.518,3.518,0,0,0-3.793-1.644c-5.69,7.587-14.288,9.989-25.288,10.748Z" transform="translate(-340.374 -2077.156)" fill="#fcd2d4"/>
        </g>
        <g id="Groupe_2" data-name="Groupe 2" transform="translate(23.104 0.884)">
          <path id="Tracé_3" data-name="Tracé 3" d="M539.747,2077.156a41.735,41.735,0,0,0-6.107.788,7.279,7.279,0,0,0-1.808,4.685c0,5.155,6,9.335,13.4,9.335q.2,0,.4,0t.4,0c7.4,0,13.4-4.179,13.4-9.335a7.278,7.278,0,0,0-1.808-4.685,41.731,41.731,0,0,0-6.107-.788Z" transform="translate(-531.832 -2077.156)" fill="#ed5f5f"/>
        </g>
        <g id="Groupe_3" data-name="Groupe 3" transform="translate(14.868 36.31)">
          <path id="Tracé_4" data-name="Tracé 4" d="M482.9,2382.4c-12.195.092-22.037,6.632-22.037,14.687a9.859,9.859,0,0,0,.225,2.089c5.1,3.155,11.475,4.433,18.961,4.949h5.7c7.486-.516,13.859-1.795,18.961-4.949a9.859,9.859,0,0,0,.226-2.089C504.938,2389.03,495.1,2382.49,482.9,2382.4Z" transform="translate(-460.863 -2382.398)" fill="#fff"/>
        </g>
        <g id="Groupe_4" data-name="Groupe 4">
          <path id="Tracé_5" data-name="Tracé 5" d="M372.513,2128.459h-5.7l-.061,0a50.5,50.5,0,0,1-14.895-2.871,24.387,24.387,0,0,1-10.818-7.936,2.61,2.61,0,0,0-2.527,1.234.884.884,0,0,1-1.659-.308,8.041,8.041,0,0,1,.445-3.747,5.8,5.8,0,0,0-3.038,1.491.885.885,0,0,1-1.5-.639,17.182,17.182,0,0,1,.77-4.891,9.841,9.841,0,0,0,.5-5.074,31.7,31.7,0,0,1,1.426-17.438,12.478,12.478,0,0,1-2.19-4.861,22.237,22.237,0,0,1-.493-5.591,31.3,31.3,0,0,1,.818-6.3.884.884,0,0,1,.532-.6,18.147,18.147,0,0,1,5.122-.961,28.458,28.458,0,0,1,12.386,2.15,38.7,38.7,0,0,1,12.118-2.578h11.837a38.7,38.7,0,0,1,12.118,2.578,28.451,28.451,0,0,1,12.386-2.15,18.149,18.149,0,0,1,5.122.961.884.884,0,0,1,.532.6,31.31,31.31,0,0,1,.818,6.3,22.224,22.224,0,0,1-.493,5.591,12.478,12.478,0,0,1-2.19,4.861,31.7,31.7,0,0,1,1.426,17.438,9.841,9.841,0,0,0,.5,5.074,17.183,17.183,0,0,1,.771,4.891.884.884,0,0,1-1.5.637,5.8,5.8,0,0,0-3.036-1.49,8.041,8.041,0,0,1,.446,3.747.888.888,0,0,1-.721.773.874.874,0,0,1-.936-.461,2.732,2.732,0,0,0-.71-.766,2.563,2.563,0,0,0-1.818-.473,24.384,24.384,0,0,1-10.818,7.936,50.5,50.5,0,0,1-14.895,2.871Zm-5.672-1.768h5.641c12.6-.873,19.73-3.885,24.612-10.394a.882.882,0,0,1,.542-.338,4.46,4.46,0,0,1,3.017.428,2.4,2.4,0,0,0-.727-1.508.884.884,0,0,1,.216-1.533,5.339,5.339,0,0,1,4.529.527,11.356,11.356,0,0,0-.534-2.472,11.61,11.61,0,0,1-.579-5.988,29.841,29.841,0,0,0-1.516-16.951.884.884,0,0,1,.148-.914c3.9-4.521,2.385-13.045,1.941-15.115a18.674,18.674,0,0,0-4.239-.7,26.82,26.82,0,0,0-11.865,2.167.885.885,0,0,1-.705-.01,36.991,36.991,0,0,0-11.792-2.577H363.8A37,37,0,0,0,352,2073.884a.885.885,0,0,1-.705.01,26.819,26.819,0,0,0-11.865-2.167,18.692,18.692,0,0,0-4.239.7c-.444,2.071-1.963,10.595,1.941,15.115a.884.884,0,0,1,.148.914,29.842,29.842,0,0,0-1.516,16.951,11.611,11.611,0,0,1-.579,5.988,11.355,11.355,0,0,0-.535,2.472,5.339,5.339,0,0,1,4.53-.527.884.884,0,0,1,.216,1.533,2.423,2.423,0,0,0-.724,1.507,4.459,4.459,0,0,1,3.014-.427.883.883,0,0,1,.542.338C347.112,2122.806,354.243,2125.818,366.842,2126.691Z" transform="translate(-332.757 -2069.539)" fill="#841919"/>
        </g>
        <g id="Groupe_5" data-name="Groupe 5" transform="translate(4.194 3.771)">
          <path id="Tracé_6" data-name="Tracé 6" d="M369.137,2102.183a16.96,16.96,0,0,1,10.357,1.892,3.625,3.625,0,0,1,.744,5.678,19.161,19.161,0,0,1-5.427,3.9,3.076,3.076,0,0,1-4.046-1.371A15.921,15.921,0,0,1,369.137,2102.183Z" transform="translate(-368.898 -2102.03)" fill="#ed5f5f"/>
        </g>
        <g id="Groupe_6" data-name="Groupe 6" transform="translate(57.226 3.771)">
          <path id="Tracé_7" data-name="Tracé 7" d="M837.986,2102.183a16.96,16.96,0,0,0-10.357,1.892,3.625,3.625,0,0,0-.744,5.678,19.161,19.161,0,0,0,5.427,3.9,3.076,3.076,0,0,0,4.046-1.371A15.921,15.921,0,0,0,837.986,2102.183Z" transform="translate(-825.835 -2102.03)" fill="#ed5f5f"/>
        </g>
        <g id="Groupe_7" data-name="Groupe 7" transform="translate(3.581 3.154)">
          <path id="Tracé_8" data-name="Tracé 8" d="M368.821,2109.866a3.67,3.67,0,0,1-3.27-2,16.491,16.491,0,0,1-1.687-10.492.612.612,0,0,1,.5-.494,17.423,17.423,0,0,1,10.771,1.966,4.237,4.237,0,0,1,.869,6.637,19.753,19.753,0,0,1-5.6,4.028A3.714,3.714,0,0,1,368.821,2109.866ZM365,2098.032a15.351,15.351,0,0,0,1.643,9.274,2.456,2.456,0,0,0,3.241,1.1,18.538,18.538,0,0,0,5.253-3.781,3.013,3.013,0,0,0-.619-4.72A16.339,16.339,0,0,0,365,2098.032Z" transform="translate(-363.615 -2096.713)" fill="#841919"/>
        </g>
        <g id="Groupe_8" data-name="Groupe 8" transform="translate(56.613 3.154)">
          <path id="Tracé_9" data-name="Tracé 9" d="M828.968,2109.867a3.711,3.711,0,0,1-1.58-.355,19.757,19.757,0,0,1-5.6-4.028,4.237,4.237,0,0,1,.869-6.637,17.43,17.43,0,0,1,10.771-1.967.613.613,0,0,1,.5.494,16.493,16.493,0,0,1-1.687,10.492A3.671,3.671,0,0,1,828.968,2109.867Zm2.114-11.92a15.629,15.629,0,0,0-7.807,1.955,3.012,3.012,0,0,0-.62,4.72,18.525,18.525,0,0,0,5.253,3.781,2.456,2.456,0,0,0,3.241-1.1,15.35,15.35,0,0,0,1.644-9.274A16.615,16.615,0,0,0,831.082,2097.948Z" transform="translate(-820.558 -2096.714)" fill="#841919"/>
        </g>
        <g id="Groupe_9" data-name="Groupe 9" transform="translate(28.014 46.022)">
          <path id="Tracé_10" data-name="Tracé 10" d="M587.693,2470.067a5.744,5.744,0,0,1-1.1-.11,5.337,5.337,0,0,1-3.571-2.709,5.336,5.336,0,0,1-3.571,2.709,4.41,4.41,0,0,1-4.184-1.153,4.92,4.92,0,0,1-1.117-1.744.374.374,0,0,1,.71-.235,3.752,3.752,0,0,0,4.449,2.4,4.8,4.8,0,0,0,3.376-2.931.374.374,0,0,1,.674,0,4.8,4.8,0,0,0,3.376,2.931,3.752,3.752,0,0,0,4.449-2.4.374.374,0,0,1,.71.235,4.921,4.921,0,0,1-1.117,1.744A4.239,4.239,0,0,1,587.693,2470.067Z" transform="translate(-574.136 -2466.08)" fill="#561010"/>
        </g>
        <g id="Groupe_10" data-name="Groupe 10" transform="translate(32.746 41.087)">
          <ellipse id="Ellipse_2" data-name="Ellipse 2" cx="4.159" cy="2.654" rx="4.159" ry="2.654" fill="#561010"/>
        </g>
        <g id="Groupe_11" data-name="Groupe 11" transform="translate(19.351 26.576)">
          <ellipse id="Ellipse_3" data-name="Ellipse 3" cx="5.53" cy="6.857" rx="5.53" ry="6.857" fill="#561010"/>
        </g>
        <g id="Groupe_12" data-name="Groupe 12" transform="translate(43.399 26.576)">
          <ellipse id="Ellipse_4" data-name="Ellipse 4" cx="5.53" cy="6.857" rx="5.53" ry="6.857" fill="#561010"/>
        </g>
        <g id="Groupe_13" data-name="Groupe 13" transform="translate(18.989 28.109)">
          <ellipse id="Ellipse_5" data-name="Ellipse 5" cx="2.057" cy="2.551" rx="2.057" ry="2.551" fill="#fff"/>
        </g>
        <g id="Groupe_14" data-name="Groupe 14" transform="translate(50.706 28.109)">
          <ellipse id="Ellipse_6" data-name="Ellipse 6" cx="2.057" cy="2.551" rx="2.057" ry="2.551" fill="#fff"/>
        </g>
        <g id="Groupe_15" data-name="Groupe 15" transform="translate(27.975 35.748)">
          <ellipse id="Ellipse_7" data-name="Ellipse 7" cx="1.035" cy="1.283" rx="1.035" ry="1.283" fill="#fff"/>
        </g>
        <g id="Groupe_16" data-name="Groupe 16" transform="translate(43.765 35.748)">
          <ellipse id="Ellipse_8" data-name="Ellipse 8" cx="1.035" cy="1.283" rx="1.035" ry="1.283" fill="#fff"/>
        </g>
        <g id="Groupe_17" data-name="Groupe 17" transform="translate(8.143 34.893)">
          <circle id="Ellipse_9" data-name="Ellipse 9" cx="2.566" cy="2.566" r="2.566" fill="#ed5f5f"/>
        </g>
        <g id="Groupe_18" data-name="Groupe 18" transform="translate(60.535 34.893)">
          <circle id="Ellipse_10" data-name="Ellipse 10" cx="2.566" cy="2.566" r="2.566" fill="#ed5f5f"/>
        </g>
      </g>
    </g>
    <g id="Groupe_23" data-name="Groupe 23" transform="translate(399.423 1919.427)">
      <g id="Groupe_21" data-name="Groupe 21">
        <path id="Tracé_11" data-name="Tracé 11" d="M1139.6,2119.874a22.19,22.19,0,0,1-7.326-1.153,16.276,16.276,0,0,1-5.956-3.583q-.462-.442-.883-.918v.591a4.2,4.2,0,0,1-2.99,4.019,15.249,15.249,0,0,1-2.232.442,20.646,20.646,0,0,1-2.85.194,16.226,16.226,0,0,1-2.724-.214,7.586,7.586,0,0,1-3.312-1.391,6.934,6.934,0,0,1-1.753-1.925,4.2,4.2,0,0,1-2.837,2.894,15.242,15.242,0,0,1-2.232.442,20.64,20.64,0,0,1-2.849.194,16.231,16.231,0,0,1-2.725-.214,7.592,7.592,0,0,1-3.312-1.39,7,7,0,0,1-2.041-2.435,11.709,11.709,0,0,1-2.361,1.86c-2.9,1.741-6.662,2.587-11.493,2.587a25.631,25.631,0,0,1-5.83-.621,15.75,15.75,0,0,1-5.066-2.107,11.193,11.193,0,0,1-3.8-4.138,11.869,11.869,0,0,1-1.333-5.643,11.494,11.494,0,0,1,2.207-7.138q-.152.011-.307.011c-.582,0-1.193.029-1.814.085s-1.21.14-1.79.25l-.207.04v14.2a4.2,4.2,0,0,1-2.99,4.019,15.252,15.252,0,0,1-2.232.442,20.64,20.64,0,0,1-2.849.194,16.23,16.23,0,0,1-2.725-.214,7.592,7.592,0,0,1-3.312-1.39,7.072,7.072,0,0,1-2.254-2.885,12.667,12.667,0,0,1-2.209,1.8c-3.223,2.082-7.5,3.094-13.064,3.094-.631,0-1.357-.018-2.22-.055-.894-.039-1.819-.117-2.753-.231-.917-.112-1.837-.255-2.737-.423a16.224,16.224,0,0,1-3-.854,7.948,7.948,0,0,1-5.472-7.631v-23.818a6.34,6.34,0,0,1,1.816-4.625,8.341,8.341,0,0,1,3.186-1.937,23.377,23.377,0,0,1,5.271-1.1,54.5,54.5,0,0,1,5.806-.3c5.2,0,9.212.925,12.266,2.828a11.221,11.221,0,0,1,5.264,7.717q.183-.165.377-.323a13.245,13.245,0,0,1,2.949-1.773,25.224,25.224,0,0,1,3.093-1.135,26.178,26.178,0,0,1,3.407-.761,23.543,23.543,0,0,1,3.6-.279,11.049,11.049,0,0,1,6.188,1.637,7.3,7.3,0,0,1,1.094.885,10.493,10.493,0,0,1,2.1-1.171q.074-.031.149-.06a19.572,19.572,0,0,1,4.452-1.055,34.748,34.748,0,0,1,4.328-.288,25.227,25.227,0,0,1,6.03.684,15.476,15.476,0,0,1,5.309,2.367,11.9,11.9,0,0,1,3.173,3.35q.07-.112.143-.22a10.378,10.378,0,0,1,2.668-2.663,18.824,18.824,0,0,1,5.6-2.586,25.121,25.121,0,0,1,7.013-.932c4.811,0,8.687,1.165,11.518,3.462a12.281,12.281,0,0,1,3.2,3.911,14.752,14.752,0,0,1,2.589-3.08,15.848,15.848,0,0,1,5.74-3.295,20.8,20.8,0,0,1,5.9-.99v-3.463a4.2,4.2,0,0,1,2.989-4.018,17,17,0,0,1,2.177-.456,18.889,18.889,0,0,1,2.957-.231,16.23,16.23,0,0,1,2.723.213,7.6,7.6,0,0,1,3.313,1.391,6.912,6.912,0,0,1,2.313,3.091,9.814,9.814,0,0,1,.589,3.581v24.175a8.54,8.54,0,0,1-4.165,7.35,19.508,19.508,0,0,1-4.839,2.185A22.252,22.252,0,0,1,1139.6,2119.874Z" transform="translate(-1013.97 -2076.954)" fill="#841919"/>
        <path id="Tracé_12" data-name="Tracé 12" d="M1159.513,2156.383a22.187,22.187,0,0,1-7.326-1.153,16.272,16.272,0,0,1-5.956-3.583q-.462-.442-.883-.918v.592a4.2,4.2,0,0,1-2.99,4.019,15.2,15.2,0,0,1-2.232.442,20.644,20.644,0,0,1-2.849.194,16.2,16.2,0,0,1-2.724-.214,7.593,7.593,0,0,1-3.312-1.391,6.944,6.944,0,0,1-1.753-1.925,4.2,4.2,0,0,1-2.837,2.893,15.275,15.275,0,0,1-2.232.443,20.718,20.718,0,0,1-2.849.193,16.2,16.2,0,0,1-2.725-.214,7.6,7.6,0,0,1-3.312-1.39,7,7,0,0,1-2.04-2.435,11.7,11.7,0,0,1-2.361,1.859c-2.9,1.741-6.662,2.587-11.493,2.587a25.628,25.628,0,0,1-5.83-.621,15.751,15.751,0,0,1-5.066-2.107,11.19,11.19,0,0,1-3.8-4.138,11.872,11.872,0,0,1-1.333-5.643,11.493,11.493,0,0,1,2.207-7.138q-.152.011-.306.011c-.582,0-1.193.028-1.815.085-.607.056-1.21.14-1.79.25l-.207.04v14.2a4.2,4.2,0,0,1-2.99,4.019,15.274,15.274,0,0,1-2.232.443,20.715,20.715,0,0,1-2.849.193,16.2,16.2,0,0,1-2.724-.214,7.6,7.6,0,0,1-3.312-1.39,7.073,7.073,0,0,1-2.254-2.885,12.651,12.651,0,0,1-2.209,1.8c-3.223,2.082-7.5,3.094-13.064,3.094-.631,0-1.357-.018-2.22-.055-.894-.039-1.819-.117-2.753-.231-.916-.112-1.837-.254-2.737-.423a16.227,16.227,0,0,1-3-.854,7.948,7.948,0,0,1-5.472-7.63v-23.818a6.339,6.339,0,0,1,1.816-4.624,8.34,8.34,0,0,1,3.186-1.937,23.4,23.4,0,0,1,5.271-1.1,54.5,54.5,0,0,1,5.806-.3c5.2,0,9.211.925,12.266,2.828a11.22,11.22,0,0,1,5.265,7.717q.183-.165.377-.323a13.238,13.238,0,0,1,2.949-1.773,25.138,25.138,0,0,1,3.093-1.135,26.191,26.191,0,0,1,3.407-.761,23.543,23.543,0,0,1,3.6-.279,11.049,11.049,0,0,1,6.188,1.638,7.285,7.285,0,0,1,1.094.885,10.5,10.5,0,0,1,2.1-1.171c.049-.021.1-.041.149-.06a19.608,19.608,0,0,1,4.452-1.055,34.7,34.7,0,0,1,4.328-.288,25.229,25.229,0,0,1,6.03.684,15.477,15.477,0,0,1,5.309,2.367,11.908,11.908,0,0,1,3.174,3.35q.069-.111.143-.22a10.38,10.38,0,0,1,2.668-2.663,18.817,18.817,0,0,1,5.6-2.585,25.114,25.114,0,0,1,7.013-.932c4.811,0,8.686,1.165,11.518,3.462a12.281,12.281,0,0,1,3.2,3.911,14.766,14.766,0,0,1,2.589-3.08,15.856,15.856,0,0,1,5.74-3.295,20.8,20.8,0,0,1,5.9-.99v-3.463a4.2,4.2,0,0,1,2.989-4.019,17.044,17.044,0,0,1,2.177-.456,18.89,18.89,0,0,1,2.957-.231,16.253,16.253,0,0,1,2.723.213,7.594,7.594,0,0,1,3.313,1.391,6.913,6.913,0,0,1,2.313,3.09,9.815,9.815,0,0,1,.589,3.581v24.175a8.54,8.54,0,0,1-4.165,7.351,19.507,19.507,0,0,1-4.84,2.185A22.252,22.252,0,0,1,1159.513,2156.383Z" transform="translate(-1031.572 -2109.226)" fill="#841919"/>
        <path id="Tracé_13" data-name="Tracé 13" d="M1070.675,2130.4a7.575,7.575,0,0,0,3.57-2.423,6.134,6.134,0,0,0,1.326-3.953,7.429,7.429,0,0,0-3.519-6.783q-3.519-2.192-10.048-2.193a50.058,50.058,0,0,0-5.355.281,19.525,19.525,0,0,0-4.335.892,4.2,4.2,0,0,0-1.607.944,2.241,2.241,0,0,0-.586,1.657v23.818a3.8,3.8,0,0,0,2.8,3.723,11.97,11.97,0,0,0,2.244.637q1.224.23,2.474.383t2.423.2q1.173.05,2.04.051,7.038,0,10.787-2.423t3.749-7.472a6.8,6.8,0,0,0-1.708-4.743A8.837,8.837,0,0,0,1070.675,2130.4Zm-11.884-8.415a13.041,13.041,0,0,1,1.556-.153q.995-.051,1.76-.051a5.952,5.952,0,0,1,3.443.816,2.559,2.559,0,0,1,1.147,2.193,2.92,2.92,0,0,1-.994,2.4,5.013,5.013,0,0,1-3.188.816h-3.723Zm7.37,17.978a6.315,6.315,0,0,1-3.392.841q-1.021,0-2.142-.076a9.1,9.1,0,0,1-1.836-.281v-6.222h4.182a6.481,6.481,0,0,1,3.417.714,2.622,2.622,0,0,1,1.122,2.4A2.873,2.873,0,0,1,1066.161,2139.959Zm30.677-17.7a6.955,6.955,0,0,0-3.876-.944,19.253,19.253,0,0,0-2.958.23,21.782,21.782,0,0,0-2.856.637,20.749,20.749,0,0,0-2.575.944,9.005,9.005,0,0,0-2.015,1.2,4.723,4.723,0,0,0-1.25,1.5,4.349,4.349,0,0,0-.434,2.015v15.3a5.4,5.4,0,0,0,.332,2.065,2.937,2.937,0,0,0,.944,1.25,3.432,3.432,0,0,0,1.5.612,11.982,11.982,0,0,0,2.014.153,16.411,16.411,0,0,0,2.27-.153,11.841,11.841,0,0,0,1.607-.306v-17.391a8.837,8.837,0,0,1,1.606-.535q.943-.23,2.015-.434t2.193-.306q1.121-.1,2.193-.1a6.418,6.418,0,0,0,.51-1.25,4.926,4.926,0,0,0,.2-1.4A3.424,3.424,0,0,0,1096.839,2122.261Zm23.333,1.275a11.254,11.254,0,0,0-3.876-1.708,20.949,20.949,0,0,0-5.023-.561,30.338,30.338,0,0,0-3.8.255,15.361,15.361,0,0,0-3.494.816,4.935,4.935,0,0,0-1.963,1.352,3.27,3.27,0,0,0-.638,2.116,4.431,4.431,0,0,0,.459,1.964,3.526,3.526,0,0,0,1.122,1.4,20.074,20.074,0,0,1,3.315-1.02,17.345,17.345,0,0,1,3.774-.408,8.755,8.755,0,0,1,3.749.638,2.187,2.187,0,0,1,1.3,2.117v.357l-6.681.714q-4.387.458-6.477,2.346a6.905,6.905,0,0,0-2.091,5.406,7.7,7.7,0,0,0,.842,3.672,7.015,7.015,0,0,0,2.4,2.6,11.532,11.532,0,0,0,3.723,1.53,21.352,21.352,0,0,0,4.871.51q6.017,0,9.333-1.989a7.38,7.38,0,0,0,1.76-1.454,3.165,3.165,0,0,0,.74-2.168V2130.6a9.311,9.311,0,0,0-.867-4.156A7.714,7.714,0,0,0,1120.172,2123.536Zm-5.024,17.111a4.663,4.663,0,0,1-1.556.485,11.4,11.4,0,0,1-1.912.178,4.324,4.324,0,0,1-2.678-.637,2.027,2.027,0,0,1-.791-1.657,1.649,1.649,0,0,1,.918-1.53,5.663,5.663,0,0,1,2.346-.612l3.672-.306Zm67.577-25.526a2.771,2.771,0,0,0-.918-1.25,3.43,3.43,0,0,0-1.5-.612,12,12,0,0,0-2.015-.153,14.618,14.618,0,0,0-2.295.178,13.981,13.981,0,0,0-1.632.332v8.262a7.992,7.992,0,0,0-1.581-.433,10.97,10.97,0,0,0-1.989-.179,16.765,16.765,0,0,0-5.228.791,11.632,11.632,0,0,0-4.233,2.423,11.156,11.156,0,0,0-2.831,4.105,15.252,15.252,0,0,0-1.02,5.84,15,15,0,0,0,.944,5.483,11.4,11.4,0,0,0,2.754,4.157,12.064,12.064,0,0,0,4.437,2.652,19.9,19.9,0,0,0,11.348.178,15.538,15.538,0,0,0,3.825-1.708,4.352,4.352,0,0,0,2.244-3.825v-24.175A5.832,5.832,0,0,0,1182.725,2115.121Zm-8.314,24.761a3.766,3.766,0,0,1-1.147.637,4.639,4.639,0,0,1-1.657.28,4.95,4.95,0,0,1-3.978-1.606,7.154,7.154,0,0,1-1.377-4.769,6.8,6.8,0,0,1,1.479-4.794,5.514,5.514,0,0,1,4.233-1.581,4.672,4.672,0,0,1,2.448.612Zm-24.327-16.091q-3.111-2.525-8.875-2.525a20.845,20.845,0,0,0-5.839.765,14.6,14.6,0,0,0-4.361,1.989,6.187,6.187,0,0,0-1.606,1.581,3.928,3.928,0,0,0-.587,2.244v15.3a5.4,5.4,0,0,0,.332,2.065,2.937,2.937,0,0,0,.944,1.25,3.432,3.432,0,0,0,1.5.612,11.98,11.98,0,0,0,2.014.153,16.416,16.416,0,0,0,2.27-.153,11.835,11.835,0,0,0,1.606-.306v-17.7a5.1,5.1,0,0,1,1.708-.765,8.092,8.092,0,0,1,2.014-.255,3.688,3.688,0,0,1,2.423.74,2.847,2.847,0,0,1,.893,2.321v12.037a5.4,5.4,0,0,0,.332,2.065,2.937,2.937,0,0,0,.943,1.25,3.432,3.432,0,0,0,1.5.612,11.985,11.985,0,0,0,2.015.153,16.416,16.416,0,0,0,2.27-.153,11.835,11.835,0,0,0,1.606-.306V2130.8A8.533,8.533,0,0,0,1150.084,2123.791Z" transform="translate(-1045.925 -2108.911)" fill="#fff"/>
      </g>
      <g id="Groupe_22" data-name="Groupe 22" transform="translate(26.969 37.619)">
        <path id="Tracé_14" data-name="Tracé 14" d="M1320.093,2422.18a8.252,8.252,0,0,1-3.522-.633,3.152,3.152,0,0,1-1.482-4.327,3.07,3.07,0,0,1,.693-.879,5.214,5.214,0,0,1-.778-.963,2.577,2.577,0,0,1-.624,1.548,4.345,4.345,0,0,1-1.029.853,8.57,8.57,0,0,1-4.466,1,10.015,10.015,0,0,1-2.277-.242,6.01,6.01,0,0,1-1.935-.8,4.292,4.292,0,0,1-.837-.714,2.982,2.982,0,0,1-.746.928,4.442,4.442,0,0,1-2.936.81,5.521,5.521,0,0,1-3.659-1.14,4.591,4.591,0,0,1-1.457-3.707v-8.834a1.338,1.338,0,0,1,.985-1.291c.193-.053.447-.106.778-.162a6.7,6.7,0,0,1,1.123-.092,3.888,3.888,0,0,1,2.129.527,2.7,2.7,0,0,1,1.128,2.467h1.366a1.338,1.338,0,0,1,1.172.693,2.374,2.374,0,0,1,.212-.31,3.311,3.311,0,0,1,1.314-.939l.048-.019a7.567,7.567,0,0,1,1.72-.406,13.7,13.7,0,0,1,1.706-.114,9.86,9.86,0,0,1,2.354.266,5.906,5.906,0,0,1,2.026.9,4.461,4.461,0,0,1,1.423,1.673q.093.189.169.389a5.443,5.443,0,0,1,1.322-1.7,6.022,6.022,0,0,1,2.172-1.171,8.664,8.664,0,0,1,2.527-.357,8.534,8.534,0,0,1,2.534.36,7.01,7.01,0,0,1,2,.96,3.854,3.854,0,0,1,.984.98l.021.032v-4.112a1.337,1.337,0,0,1,1.1-1.316q.234-.043.693-.117a6.913,6.913,0,0,1,1.114-.09,6.228,6.228,0,0,1,1.042.081,2.718,2.718,0,0,1,1.185.5,2.453,2.453,0,0,1,.622.685,3.127,3.127,0,0,1,.789-1.357,3.41,3.41,0,0,1,4.7,0,3.259,3.259,0,0,1,0,4.516,2.589,2.589,0,0,1,.506.785,2.89,2.89,0,0,1,.172.579c.027-.047.057-.094.087-.139a3.847,3.847,0,0,1,.991-.987,7.257,7.257,0,0,1,2.158-.993,9.8,9.8,0,0,1,2.738-.363,6.871,6.871,0,0,1,4.435,1.321,4.6,4.6,0,0,1,1.471,2.1,5.9,5.9,0,0,1,1.41-1.863,6.015,6.015,0,0,1,2.12-1.194,7.518,7.518,0,0,1,2.309-.364,7.094,7.094,0,0,1,2.454.412,6.145,6.145,0,0,1,1.975,1.164,5.393,5.393,0,0,1,1.344,1.835,5.589,5.589,0,0,1,.479,2.3,2.708,2.708,0,0,1-.81,2.044,2.831,2.831,0,0,1-.4.314,3.273,3.273,0,0,1,.35.473,2.852,2.852,0,0,1-1.161,4.051,5.931,5.931,0,0,1-1.908.612,11.825,11.825,0,0,1-1.747.139,8.6,8.6,0,0,1-2.676-.406,6.475,6.475,0,0,1-2.285-1.289,5.892,5.892,0,0,1-1.174-1.423v1.43a1.338,1.338,0,0,1-.954,1.282,5.927,5.927,0,0,1-.849.167,8.027,8.027,0,0,1-1.1.075,6.2,6.2,0,0,1-1.042-.081,2.713,2.713,0,0,1-1.185-.5,2.513,2.513,0,0,1-.813-1.06,3.448,3.448,0,0,1-.238-1.352v-4.772h0c-.057,0-.113,0-.169.008v6.23a1.337,1.337,0,0,1-.954,1.281,5.841,5.841,0,0,1-.848.167,8.033,8.033,0,0,1-1.1.075,6.2,6.2,0,0,1-1.042-.081,2.714,2.714,0,0,1-1.186-.5,2.455,2.455,0,0,1-.628-.7,1.339,1.339,0,0,1-1.077,1.066q-.235.042-.692.117a6.975,6.975,0,0,1-1.114.09,6.2,6.2,0,0,1-1.042-.081,2.717,2.717,0,0,1-1.186-.5,2.469,2.469,0,0,1-.677-.779,1.337,1.337,0,0,1-1.09,1.149q-.235.042-.692.117a6.978,6.978,0,0,1-1.114.09,6.2,6.2,0,0,1-1.042-.081,2.713,2.713,0,0,1-1.186-.5,2.451,2.451,0,0,1-.641-.717,5.072,5.072,0,0,1-.526,1.8,5.145,5.145,0,0,1-1.517,1.78,6.145,6.145,0,0,1-2.133.994A9.564,9.564,0,0,1,1320.093,2422.18Zm-18.912-8.869a2.791,2.791,0,0,0,.4-.035,2.2,2.2,0,0,0,.362-.081,1.338,1.338,0,0,1,.886.013,3.843,3.843,0,0,1,1.222-2.318q.084-.075.172-.147a2.693,2.693,0,0,1-.225-.268,2.233,2.233,0,0,1-.469.693,2.473,2.473,0,0,1-1.8.712h-.541Zm19.473-2.451a.5.5,0,0,0-.3.107,1.2,1.2,0,0,0-.167.73,1.469,1.469,0,0,0,.134.8.381.381,0,0,0,.324.114h0Zm11.779-4.581q.035-.036.073-.069c-.025-.033-.049-.068-.073-.1Zm-81.365,15.818a3.286,3.286,0,0,1-2.331-.889,3.483,3.483,0,0,1-1.04-2.141,1.337,1.337,0,0,1,.5-1.219c.4-.315.814-.671,1.222-1.06l.157-.152a7.148,7.148,0,0,1-.887-1.539l0-.01c-.155-.351-.324-.753-.5-1.2s-.369-.961-.563-1.538-.394-1.23-.6-1.955-.421-1.565-.643-2.5a1.338,1.338,0,0,1,.356-1.257,4.013,4.013,0,0,1,2.783-1.114,3.527,3.527,0,0,1,1.91.505,3.111,3.111,0,0,1,1.277,1.894l.371,1.292q.062-.266.122-.53c.125-.561.235-1.118.327-1.657a1.338,1.338,0,0,1,.695-.958,4.783,4.783,0,0,1,2.255-.547,3.466,3.466,0,0,1,1.928.527,2.362,2.362,0,0,1,1.015,1.526q.156-.178.325-.343a6.218,6.218,0,0,1,2.165-1.356,7.613,7.613,0,0,1,2.679-.457,7.462,7.462,0,0,1,2.69.471,6.351,6.351,0,0,1,2.154,1.362,5.911,5.911,0,0,1,.94,1.186v-1.227a1.338,1.338,0,0,1,.952-1.281,5.784,5.784,0,0,1,.851-.168,8.013,8.013,0,0,1,1.1-.075,6.233,6.233,0,0,1,1.041.081,2.715,2.715,0,0,1,1.185.5,2.519,2.519,0,0,1,.813,1.058,3.464,3.464,0,0,1,.239,1.354v4.438a1.463,1.463,0,0,0,.013.209,1.109,1.109,0,0,0,.16.019v-6.132a1.337,1.337,0,0,1,.953-1.281,5.757,5.757,0,0,1,.851-.168,8.013,8.013,0,0,1,1.1-.075,6.234,6.234,0,0,1,1.041.081,2.715,2.715,0,0,1,1.185.5,2.522,2.522,0,0,1,.813,1.058,2.834,2.834,0,0,1,.148.467,3.3,3.3,0,0,1,.737-.832,4.976,4.976,0,0,1,1.114-.668,9.829,9.829,0,0,1,1.207-.443,10.224,10.224,0,0,1,1.332-.3,9.2,9.2,0,0,1,1.4-.109,4.124,4.124,0,0,1,2.306.6,2.721,2.721,0,0,1,1.179,2.366,3.345,3.345,0,0,1-.137.946,3.947,3.947,0,0,1-.316.769,1.337,1.337,0,0,1-1.174.7c-.245,0-.5.012-.767.036s-.514.059-.759.106c-.13.025-.255.051-.377.076v6.041a1.338,1.338,0,0,1-.954,1.281,5.839,5.839,0,0,1-.848.167,8.031,8.031,0,0,1-1.1.075,6.194,6.194,0,0,1-1.042-.081,2.713,2.713,0,0,1-1.186-.5,2.516,2.516,0,0,1-.813-1.059,2.748,2.748,0,0,1-.132-.4,3.089,3.089,0,0,1-1.083,1.073,7.044,7.044,0,0,1-2.115.853,10.824,10.824,0,0,1-2.486.273,9.4,9.4,0,0,1-2.4-.292,5.929,5.929,0,0,1-2.087-.991,4.749,4.749,0,0,1-1.462-1.843q-.093-.205-.169-.425a5.87,5.87,0,0,1-1.27,1.8,6.047,6.047,0,0,1-2.181,1.326,7.937,7.937,0,0,1-2.656.428,7.61,7.61,0,0,1-2.678-.457,6.213,6.213,0,0,1-2.165-1.356,6.089,6.089,0,0,1-1.416-2.15,6.525,6.525,0,0,1-.27-.849c-.14.364-.283.724-.429,1.076-.245.592-.5,1.156-.759,1.679s-.516,1.006-.765,1.431a15.645,15.645,0,0,1-1.173,1.8,7.114,7.114,0,0,1-1.174,1.229,4.055,4.055,0,0,1-1.361.731A4.687,4.687,0,0,1,1251.068,2422.1Zm13.52-11.25c-.175,0-.2.038-.25.106a2.948,2.948,0,0,0,0,2.282c.051.071.085.117.268.117.16,0,.179-.028.226-.1a2.1,2.1,0,0,0,.232-1.166,2,2,0,0,0-.229-1.137C1264.789,2410.886,1264.762,2410.848,1264.588,2410.848Z" transform="translate(-1246.344 -2401.092)" fill="#841919"/>
        <path id="Tracé_15" data-name="Tracé 15" d="M1328.56,2438.407a8.251,8.251,0,0,1-3.522-.633,3.152,3.152,0,0,1-1.482-4.328,3.069,3.069,0,0,1,.693-.879,5.224,5.224,0,0,1-.778-.963,2.578,2.578,0,0,1-.625,1.548,4.337,4.337,0,0,1-1.029.853,8.567,8.567,0,0,1-4.466,1,10.03,10.03,0,0,1-2.277-.242,6.02,6.02,0,0,1-1.935-.8,4.289,4.289,0,0,1-.837-.714,2.978,2.978,0,0,1-.746.929,4.445,4.445,0,0,1-2.937.81,5.52,5.52,0,0,1-3.658-1.141,4.59,4.59,0,0,1-1.457-3.707V2421.3a1.338,1.338,0,0,1,.985-1.29c.193-.053.447-.106.777-.162a6.684,6.684,0,0,1,1.124-.092,3.887,3.887,0,0,1,2.129.527,2.7,2.7,0,0,1,1.129,2.466h1.366a1.338,1.338,0,0,1,1.172.693,2.384,2.384,0,0,1,.212-.31,3.316,3.316,0,0,1,1.314-.938l.048-.019a7.558,7.558,0,0,1,1.72-.407,13.638,13.638,0,0,1,1.706-.113,9.873,9.873,0,0,1,2.354.266,5.9,5.9,0,0,1,2.026.9,4.46,4.46,0,0,1,1.423,1.673q.093.189.168.389a5.451,5.451,0,0,1,1.323-1.7,6.023,6.023,0,0,1,2.172-1.171,8.677,8.677,0,0,1,2.527-.357,8.527,8.527,0,0,1,2.534.359,7.01,7.01,0,0,1,2,.96,3.846,3.846,0,0,1,.984.98l.021.032v-4.112a1.337,1.337,0,0,1,1.1-1.316c.156-.029.387-.067.693-.117a6.912,6.912,0,0,1,1.114-.09,6.172,6.172,0,0,1,1.042.082,2.721,2.721,0,0,1,1.185.5,2.455,2.455,0,0,1,.622.686,3.129,3.129,0,0,1,.788-1.357,3.41,3.41,0,0,1,4.7,0,3.258,3.258,0,0,1,0,4.516,2.591,2.591,0,0,1,.505.785,2.873,2.873,0,0,1,.172.579c.028-.047.057-.094.087-.139a3.847,3.847,0,0,1,.991-.987,7.261,7.261,0,0,1,2.158-.993,9.8,9.8,0,0,1,2.738-.363,6.873,6.873,0,0,1,4.435,1.32,4.6,4.6,0,0,1,1.472,2.1,5.9,5.9,0,0,1,1.409-1.863,6.022,6.022,0,0,1,2.12-1.194,7.535,7.535,0,0,1,2.31-.363,7.087,7.087,0,0,1,2.454.412,6.147,6.147,0,0,1,1.975,1.164,5.4,5.4,0,0,1,1.344,1.835,5.584,5.584,0,0,1,.479,2.3,2.708,2.708,0,0,1-.81,2.044,2.792,2.792,0,0,1-.4.314,3.242,3.242,0,0,1,.35.473,2.853,2.853,0,0,1-1.16,4.051,5.936,5.936,0,0,1-1.908.612,11.894,11.894,0,0,1-1.747.139,8.6,8.6,0,0,1-2.676-.407,6.469,6.469,0,0,1-2.285-1.289,5.892,5.892,0,0,1-1.174-1.422v1.43a1.337,1.337,0,0,1-.955,1.281,5.874,5.874,0,0,1-.848.167,8.067,8.067,0,0,1-1.1.075,6.222,6.222,0,0,1-1.042-.081,2.72,2.72,0,0,1-1.185-.5,2.509,2.509,0,0,1-.813-1.06,3.445,3.445,0,0,1-.238-1.352v-4.772h0c-.057,0-.113,0-.169.008v6.23a1.338,1.338,0,0,1-.954,1.281,5.867,5.867,0,0,1-.848.167,8.07,8.07,0,0,1-1.1.075,6.222,6.222,0,0,1-1.042-.081,2.719,2.719,0,0,1-1.186-.5,2.451,2.451,0,0,1-.628-.695,1.338,1.338,0,0,1-1.077,1.065q-.234.042-.692.117a6.977,6.977,0,0,1-1.114.09,6.22,6.22,0,0,1-1.042-.081,2.717,2.717,0,0,1-1.186-.5,2.462,2.462,0,0,1-.677-.778,1.338,1.338,0,0,1-1.09,1.149q-.235.042-.692.117a6.98,6.98,0,0,1-1.114.09,6.221,6.221,0,0,1-1.042-.081,2.719,2.719,0,0,1-1.186-.5,2.457,2.457,0,0,1-.641-.717,5.063,5.063,0,0,1-.526,1.8,5.146,5.146,0,0,1-1.517,1.78,6.141,6.141,0,0,1-2.133.994A9.575,9.575,0,0,1,1328.56,2438.407Zm-18.911-8.869a2.757,2.757,0,0,0,.4-.035,2.179,2.179,0,0,0,.361-.081,1.34,1.34,0,0,1,.886.013,3.841,3.841,0,0,1,1.222-2.318q.084-.076.173-.147a2.707,2.707,0,0,1-.225-.268,2.243,2.243,0,0,1-.469.693,2.474,2.474,0,0,1-1.8.712h-.541Zm19.473-2.451a.5.5,0,0,0-.295.107,1.2,1.2,0,0,0-.167.73,1.472,1.472,0,0,0,.134.8.381.381,0,0,0,.324.114h0Zm11.779-4.581c.023-.024.048-.047.073-.069-.025-.033-.05-.067-.073-.1Zm-81.365,15.817a3.286,3.286,0,0,1-2.331-.889,3.482,3.482,0,0,1-1.041-2.141,1.337,1.337,0,0,1,.5-1.219c.4-.315.814-.671,1.222-1.061.053-.05.105-.1.157-.152a7.139,7.139,0,0,1-.887-1.539l0-.01c-.155-.351-.324-.753-.5-1.2s-.369-.961-.563-1.538-.395-1.23-.6-1.955-.421-1.565-.643-2.5a1.337,1.337,0,0,1,.356-1.257,4.012,4.012,0,0,1,2.783-1.114,3.528,3.528,0,0,1,1.91.5,3.112,3.112,0,0,1,1.277,1.894l.371,1.293c.042-.177.082-.354.122-.53.125-.561.235-1.118.327-1.657a1.339,1.339,0,0,1,.695-.958,4.78,4.78,0,0,1,2.255-.546,3.467,3.467,0,0,1,1.928.527,2.362,2.362,0,0,1,1.015,1.525q.156-.178.325-.343a6.214,6.214,0,0,1,2.165-1.356,7.608,7.608,0,0,1,2.679-.457,7.461,7.461,0,0,1,2.689.471,6.35,6.35,0,0,1,2.154,1.362,5.913,5.913,0,0,1,.94,1.186v-1.227a1.338,1.338,0,0,1,.952-1.281,5.834,5.834,0,0,1,.851-.167,7.977,7.977,0,0,1,1.1-.075,6.235,6.235,0,0,1,1.041.081,2.713,2.713,0,0,1,1.185.5,2.512,2.512,0,0,1,.813,1.058,3.453,3.453,0,0,1,.239,1.354v4.438a1.426,1.426,0,0,0,.013.209,1.132,1.132,0,0,0,.16.02v-6.132a1.339,1.339,0,0,1,.953-1.281A5.837,5.837,0,0,1,1287,2422a7.971,7.971,0,0,1,1.1-.075,6.238,6.238,0,0,1,1.042.081,2.716,2.716,0,0,1,1.185.5,2.518,2.518,0,0,1,.813,1.058,2.769,2.769,0,0,1,.148.466,3.3,3.3,0,0,1,.737-.832,5.017,5.017,0,0,1,1.114-.668,9.824,9.824,0,0,1,1.207-.443,10.262,10.262,0,0,1,1.332-.3,9.163,9.163,0,0,1,1.4-.108,4.124,4.124,0,0,1,2.306.6,2.72,2.72,0,0,1,1.179,2.366,3.34,3.34,0,0,1-.137.945,3.963,3.963,0,0,1-.316.769,1.338,1.338,0,0,1-1.174.7c-.245,0-.5.012-.767.036s-.513.059-.759.105c-.129.025-.256.051-.377.077v6.041a1.338,1.338,0,0,1-.954,1.281,5.86,5.86,0,0,1-.848.167,8.07,8.07,0,0,1-1.1.075,6.222,6.222,0,0,1-1.042-.081,2.722,2.722,0,0,1-1.186-.5,2.518,2.518,0,0,1-.813-1.059,2.768,2.768,0,0,1-.132-.4,3.087,3.087,0,0,1-1.083,1.073,7.036,7.036,0,0,1-2.114.853,10.811,10.811,0,0,1-2.486.273,9.4,9.4,0,0,1-2.395-.292,5.924,5.924,0,0,1-2.087-.991,4.751,4.751,0,0,1-1.462-1.843q-.093-.205-.169-.425a5.868,5.868,0,0,1-1.27,1.8,6.048,6.048,0,0,1-2.181,1.326,7.936,7.936,0,0,1-2.655.428,7.6,7.6,0,0,1-2.679-.457,6.21,6.21,0,0,1-2.165-1.355,6.088,6.088,0,0,1-1.416-2.15,6.483,6.483,0,0,1-.27-.849c-.14.364-.283.724-.429,1.076-.246.591-.5,1.157-.759,1.679s-.516,1.006-.765,1.431a15.608,15.608,0,0,1-1.173,1.8,7.11,7.11,0,0,1-1.174,1.229,4.052,4.052,0,0,1-1.361.731A4.7,4.7,0,0,1,1259.534,2438.325Zm13.521-11.25c-.175,0-.2.038-.25.106a2.943,2.943,0,0,0,0,2.282c.051.071.085.117.268.117.16,0,.179-.028.226-.1a2.1,2.1,0,0,0,.232-1.166,2,2,0,0,0-.229-1.137C1273.256,2427.113,1273.229,2427.075,1273.055,2427.075Z" transform="translate(-1253.828 -2415.436)" fill="#841919"/>
        <path id="Tracé_16" data-name="Tracé 16" d="M1300.373,2417.356a2.818,2.818,0,0,0-1.569-.382,7.782,7.782,0,0,0-1.2.093,8.836,8.836,0,0,0-1.156.258,8.406,8.406,0,0,0-1.042.382,3.64,3.64,0,0,0-.815.485,1.913,1.913,0,0,0-.506.609,1.759,1.759,0,0,0-.175.815v6.193a2.186,2.186,0,0,0,.134.836,1.188,1.188,0,0,0,.382.506,1.392,1.392,0,0,0,.609.248,4.855,4.855,0,0,0,.815.062,6.649,6.649,0,0,0,.919-.062,4.818,4.818,0,0,0,.65-.124v-7.039a3.607,3.607,0,0,1,.65-.217q.382-.092.815-.175c.289-.055.585-.1.888-.124s.6-.041.888-.041a2.6,2.6,0,0,0,.207-.505,2,2,0,0,0,.083-.568A1.387,1.387,0,0,0,1300.373,2417.356Zm11.539,3.375a1.156,1.156,0,0,0,.857-.32,1.431,1.431,0,0,0,.32-1.042,2.373,2.373,0,0,0-.114-.753,3.547,3.547,0,0,0-.237-.568h-2.7v-1.321a1.5,1.5,0,0,0-.506-1.352,2.644,2.644,0,0,0-1.414-.32,5.309,5.309,0,0,0-.9.073q-.423.072-.65.134v8.835a3.324,3.324,0,0,0,.981,2.683,4.226,4.226,0,0,0,2.8.826,3.282,3.282,0,0,0,2.074-.5,1.6,1.6,0,0,0,.588-1.28,1.537,1.537,0,0,0-.134-.671,2.527,2.527,0,0,0-.32-.506,3.585,3.585,0,0,1-.578.134,4.143,4.143,0,0,1-.64.052,1.721,1.721,0,0,1-.96-.227.849.849,0,0,1-.34-.764v-3.117Zm-44.049-3.365a2.152,2.152,0,0,0-1.2-.309,3.443,3.443,0,0,0-1.631.392q-.145.847-.341,1.724t-.423,1.754q-.227.878-.464,1.7t-.485,1.527h-.083l-1.631-5.676a1.839,1.839,0,0,0-.7-1.125,2.21,2.21,0,0,0-1.2-.3,2.677,2.677,0,0,0-1.837.722q.33,1.383.63,2.446t.578,1.889q.279.826.537,1.465t.485,1.156a4.78,4.78,0,0,0,.877,1.435,1.943,1.943,0,0,0,.753.485,13.868,13.868,0,0,1-1.2,1.29q-.661.629-1.321,1.146a2.168,2.168,0,0,0,.64,1.342,1.942,1.942,0,0,0,1.4.516,3.335,3.335,0,0,0,.949-.134,2.711,2.711,0,0,0,.908-.5,5.886,5.886,0,0,0,.95-1,14.488,14.488,0,0,0,1.073-1.651q.351-.6.722-1.352t.723-1.6q.351-.846.671-1.723t.557-1.7q.237-.825.382-1.558a6.792,6.792,0,0,0,.145-1.29A1.184,1.184,0,0,0,1267.863,2417.366Zm10.827,1.042a5,5,0,0,0-1.7-1.073,6.1,6.1,0,0,0-2.209-.382,6.242,6.242,0,0,0-2.209.372,4.863,4.863,0,0,0-1.7,1.063,4.748,4.748,0,0,0-1.1,1.682,6.474,6.474,0,0,0,0,4.438,4.744,4.744,0,0,0,1.1,1.682,4.864,4.864,0,0,0,1.7,1.063,6.253,6.253,0,0,0,2.209.371,6.584,6.584,0,0,0,2.209-.351,4.7,4.7,0,0,0,1.7-1.032,4.627,4.627,0,0,0,1.1-1.683,6.218,6.218,0,0,0,.392-2.281,5.9,5.9,0,0,0-.392-2.188A4.751,4.751,0,0,0,1278.69,2418.409Zm-2.56,5.79a1.514,1.514,0,0,1-1.332.681,1.573,1.573,0,0,1-1.352-.671,4.08,4.08,0,0,1-.01-3.839,1.677,1.677,0,0,1,2.684,0,3.277,3.277,0,0,1,.475,1.909A3.382,3.382,0,0,1,1276.13,2424.2Zm15.12-6.667a1.388,1.388,0,0,0-.609-.248,4.835,4.835,0,0,0-.815-.062,6.6,6.6,0,0,0-.919.062,4.78,4.78,0,0,0-.65.124v7.225a2.656,2.656,0,0,1-.464.165,2.97,2.97,0,0,1-.774.083,1.765,1.765,0,0,1-1.2-.362,1.531,1.531,0,0,1-.413-1.207v-4.438a2.192,2.192,0,0,0-.134-.836,1.2,1.2,0,0,0-.382-.506,1.388,1.388,0,0,0-.609-.248,4.836,4.836,0,0,0-.815-.062,6.609,6.609,0,0,0-.919.062,4.777,4.777,0,0,0-.65.124v5.9a4.732,4.732,0,0,0,.371,1.971,3.415,3.415,0,0,0,1.053,1.331,4.588,4.588,0,0,0,1.62.764,8.045,8.045,0,0,0,2.054.248,9.448,9.448,0,0,0,2.178-.237,5.672,5.672,0,0,0,1.724-.691,1.687,1.687,0,0,0,.867-1.548v-6.275a2.187,2.187,0,0,0-.134-.836A1.193,1.193,0,0,0,1291.25,2417.532Zm79.346,4.872a1.409,1.409,0,0,0,.392-1.074,4.237,4.237,0,0,0-.361-1.754,4.043,4.043,0,0,0-1.011-1.383,4.793,4.793,0,0,0-1.548-.908,5.734,5.734,0,0,0-1.992-.33,6.172,6.172,0,0,0-1.9.3,4.534,4.534,0,0,0-2.818,2.539,5.65,5.65,0,0,0-.444,2.343,6.075,6.075,0,0,0,.444,2.415,4.73,4.73,0,0,0,1.218,1.713,5.123,5.123,0,0,0,1.816,1.022,7.244,7.244,0,0,0,2.26.34,10.477,10.477,0,0,0,1.548-.124,4.589,4.589,0,0,0,1.486-.475,1.515,1.515,0,0,0,.64-2.167,1.731,1.731,0,0,0-.557-.578,5.086,5.086,0,0,1-1.228.506,5.762,5.762,0,0,1-1.6.217,3.646,3.646,0,0,1-1.61-.341,1.714,1.714,0,0,1-.929-1.022l5.1-.763A1.962,1.962,0,0,0,1370.6,2422.4Zm-6.44-1.074a2.364,2.364,0,0,1,.134-.65,1.756,1.756,0,0,1,.341-.578,1.727,1.727,0,0,1,.588-.423,2.045,2.045,0,0,1,.857-.165,1.52,1.52,0,0,1,1.156.413,1.561,1.561,0,0,1,.454.825Zm-18.825-8.711a1.864,1.864,0,0,0-1.393.537,1.921,1.921,0,0,0,0,2.642,2.077,2.077,0,0,0,2.786,0,1.921,1.921,0,0,0,0-2.642A1.864,1.864,0,0,0,1345.33,2412.619Zm-22.819,5.253a4.55,4.55,0,0,0-1.569-.691,8.475,8.475,0,0,0-2.033-.227,12.308,12.308,0,0,0-1.538.1,6.216,6.216,0,0,0-1.414.33,2,2,0,0,0-.795.547,1.325,1.325,0,0,0-.258.856,1.8,1.8,0,0,0,.186.795,1.427,1.427,0,0,0,.454.568,8.091,8.091,0,0,1,1.342-.413,7.031,7.031,0,0,1,1.527-.165,3.542,3.542,0,0,1,1.517.258.885.885,0,0,1,.526.857v.144l-2.7.289a4.564,4.564,0,0,0-2.621.949,2.8,2.8,0,0,0-.846,2.188,3.117,3.117,0,0,0,.341,1.486,2.839,2.839,0,0,0,.97,1.053,4.67,4.67,0,0,0,1.507.619,8.635,8.635,0,0,0,1.971.206,7.378,7.378,0,0,0,3.777-.8,2.994,2.994,0,0,0,.712-.588,1.281,1.281,0,0,0,.3-.877v-4.624a3.769,3.769,0,0,0-.351-1.683A3.121,3.121,0,0,0,1322.511,2417.872Zm-2.033,6.925a1.881,1.881,0,0,1-.629.2,4.639,4.639,0,0,1-.774.072,1.753,1.753,0,0,1-1.084-.258.821.821,0,0,1-.32-.671.667.667,0,0,1,.371-.619,2.291,2.291,0,0,1,.95-.248l1.486-.124Zm37.444-6.822a5.569,5.569,0,0,0-3.592-1.022,8.443,8.443,0,0,0-2.364.31,5.906,5.906,0,0,0-1.765.8,2.5,2.5,0,0,0-.65.64,1.588,1.588,0,0,0-.237.908v6.193a2.186,2.186,0,0,0,.134.836,1.191,1.191,0,0,0,.382.506,1.392,1.392,0,0,0,.609.248,4.853,4.853,0,0,0,.815.062,6.649,6.649,0,0,0,.919-.062,4.822,4.822,0,0,0,.65-.124v-7.163a2.061,2.061,0,0,1,.692-.31,3.269,3.269,0,0,1,.815-.1,1.491,1.491,0,0,1,.98.3,1.152,1.152,0,0,1,.361.939v4.872a2.185,2.185,0,0,0,.134.836,1.189,1.189,0,0,0,.382.506,1.392,1.392,0,0,0,.609.248,4.855,4.855,0,0,0,.815.062,6.647,6.647,0,0,0,.919-.062,4.828,4.828,0,0,0,.65-.124v-6.461A3.453,3.453,0,0,0,1357.922,2417.976Zm-11.353-.444a1.389,1.389,0,0,0-.609-.248,4.837,4.837,0,0,0-.815-.062,5.584,5.584,0,0,0-.9.072q-.444.073-.671.113v8.4a2.18,2.18,0,0,0,.134.836,1.187,1.187,0,0,0,.382.506,1.391,1.391,0,0,0,.609.248,4.857,4.857,0,0,0,.816.062,5.563,5.563,0,0,0,.9-.073q.444-.073.671-.114v-8.4a2.189,2.189,0,0,0-.134-.836A1.192,1.192,0,0,0,1346.569,2417.532Zm-5.8-3.571a1.386,1.386,0,0,0-.609-.248,4.861,4.861,0,0,0-.816-.062,5.585,5.585,0,0,0-.9.072q-.444.073-.671.113v11.973a2.186,2.186,0,0,0,.134.836,1.189,1.189,0,0,0,.382.506,1.392,1.392,0,0,0,.609.248,4.854,4.854,0,0,0,.815.062,5.562,5.562,0,0,0,.9-.073q.443-.073.671-.114V2415.3a2.195,2.195,0,0,0-.134-.836A1.194,1.194,0,0,0,1340.769,2413.961Zm-6.11,4.066a5.642,5.642,0,0,0-1.62-.774,7.174,7.174,0,0,0-2.136-.3,7.307,7.307,0,0,0-2.137.3,4.671,4.671,0,0,0-1.693.908,4.169,4.169,0,0,0-1.115,1.538,5.47,5.47,0,0,0-.4,2.188,5.786,5.786,0,0,0,.382,2.209,4.251,4.251,0,0,0,1.011,1.517,3.961,3.961,0,0,0,1.466.867,5.552,5.552,0,0,0,1.765.279,5.129,5.129,0,0,0,2.064-.372v.33a1.27,1.27,0,0,1-.66,1.2,3.626,3.626,0,0,1-1.775.372,5.363,5.363,0,0,1-1.558-.227,6.952,6.952,0,0,1-1.352-.557,1.653,1.653,0,0,0-.444.547,1.722,1.722,0,0,0-.2.836,1.7,1.7,0,0,0,1.073,1.641,7.056,7.056,0,0,0,2.952.506,8.189,8.189,0,0,0,2.054-.248,4.793,4.793,0,0,0,1.672-.774,3.8,3.8,0,0,0,1.125-1.321,4.049,4.049,0,0,0,.413-1.889v-7.225a1.593,1.593,0,0,0-.237-.908A2.525,2.525,0,0,0,1334.659,2418.027Zm-2.477,5.718a2.1,2.1,0,0,1-1.342.392,1.71,1.71,0,0,1-1.29-.526,2.433,2.433,0,0,1-.506-1.724,2.356,2.356,0,0,1,.506-1.62,1.927,1.927,0,0,1,1.517-.568,2.487,2.487,0,0,1,.692.083,2.1,2.1,0,0,1,.423.165Z" transform="translate(-1256.534 -2411.281)" fill="#fff"/>
      </g>
    </g>
  </g>
</svg>
